<?xml version="1.0" standalone="no"?>
<!DOCTYPE svg PUBLIC "-//W3C//DTD SVG 20010904//EN"
 "http://www.w3.org/TR/2001/REC-SVG-20010904/DTD/svg10.dtd">
<svg version="1.0" xmlns="http://www.w3.org/2000/svg"
 width="860.000000pt" height="633.000000pt" viewBox="0 0 860.000000 633.000000"
 preserveAspectRatio="xMidYMid meet">

<g transform="translate(0.000000,633.000000) scale(0.100000,-0.100000)"
fill="#E0E0E0" stroke="none">
<path d="M2740 5914 c-420 -52 -774 -144 -918 -237 -142 -92 -324 -275 -447
-447 -186 -263 -405 -737 -605 -1310 -191 -549 -329 -1171 -415 -1875 -74
-609 -71 -822 15 -1011 154 -340 486 -572 867 -607 225 -20 373 9 598 119 140
68 222 130 365 274 139 139 280 314 550 680 328 444 423 562 488 607 198 139
485 217 890 243 468 30 978 -66 1214 -228 89 -61 132 -115 563 -697 330 -447
496 -634 690 -780 72 -54 250 -144 359 -180 167 -56 451 -54 624 4 338 113
581 346 680 651 46 140 51 250 27 542 -42 493 -136 1083 -246 1538 -194 806
-572 1722 -865 2097 -82 104 -248 272 -334 337 -154 116 -404 196 -805 256
-179 27 -492 37 -632 21 -210 -25 -345 -82 -453 -191 -79 -81 -119 -145 -181
-297 -35 -87 -53 -119 -71 -127 -33 -15 -765 -14 -798 1 -18 8 -32 29 -49 74
-110 295 -242 433 -482 507 -134 41 -446 59 -629 36z m445 -479 c136 -32 129
-24 249 -276 92 -195 175 -279 308 -315 83 -22 434 -37 718 -30 401 11 462 25
571 136 51 51 76 89 113 166 27 54 64 131 83 171 66 136 105 154 350 161 225
6 505 -32 772 -103 222 -60 358 -178 536 -466 235 -380 559 -1212 695 -1784
121 -513 240 -1327 244 -1670 1 -139 1 -140 -32 -208 -39 -79 -134 -185 -209
-233 -69 -45 -185 -83 -276 -90 -189 -16 -405 83 -597 276 -82 82 -235 278
-570 730 -145 195 -289 387 -320 425 -184 224 -563 401 -1011 472 -167 26
-851 26 -1018 0 -316 -50 -601 -152 -806 -290 -146 -97 -185 -143 -559 -652
-472 -642 -618 -800 -831 -900 -280 -132 -592 -46 -757 210 -61 94 -72 146
-64 310 19 406 142 1206 252 1650 117 470 327 1046 539 1480 167 342 330 563
487 658 127 77 408 142 818 191 68 8 246 -3 315 -19z"/>
<path d="M5820 4779 c-111 -22 -208 -99 -258 -207 -24 -50 -27 -69 -27 -162 0
-101 1 -108 34 -168 40 -74 100 -130 180 -169 49 -24 68 -28 147 -28 84 0 95
3 165 37 119 59 171 124 205 260 19 72 13 125 -23 215 -48 119 -146 198 -277
222 -67 12 -83 12 -146 0z m124 -235 c60 -21 86 -59 86 -127 0 -89 -46 -137
-132 -137 -102 0 -167 101 -123 194 14 30 86 86 110 86 6 0 33 -7 59 -16z"/>
<path d="M2420 4671 c-193 -10 -192 -9 -201 -289 -4 -119 -7 -217 -8 -218 -1
0 -94 -4 -208 -8 -128 -4 -216 -11 -232 -19 -14 -7 -35 -30 -46 -52 -17 -36
-20 -66 -23 -285 -4 -271 0 -289 61 -334 28 -21 84 -25 418 -35 l37 -1 3 -209
c6 -304 -8 -294 379 -289 281 3 298 7 322 66 6 15 13 114 16 225 3 135 8 200
16 203 6 2 102 8 212 12 219 9 242 15 267 70 8 19 12 108 12 287 0 277 -5 313
-49 338 -14 8 -95 14 -236 17 l-215 5 -5 215 c-7 259 -10 267 -115 294 -35 9
-286 13 -405 7z m282 -456 l3 -215 32 -32 c40 -39 82 -46 306 -47 l157 -1 0
-119 0 -119 -207 -4 c-184 -3 -211 -5 -236 -22 -49 -33 -52 -48 -57 -271 l-5
-210 -120 0 -120 0 -5 216 c-5 234 -6 235 -64 267 -26 14 -68 17 -238 20
l-208 4 0 118 0 118 208 4 c309 6 302 -1 302 306 l0 202 124 0 125 0 3 -215z"/>
<path d="M5161 4159 c-96 -19 -193 -94 -239 -185 -94 -187 -12 -424 176 -512
50 -24 70 -27 157 -27 93 0 105 2 167 33 227 112 275 431 91 604 -62 57 -93
73 -168 87 -67 13 -121 13 -184 0z m165 -241 c58 -27 83 -128 47 -189 -10 -16
-37 -39 -61 -50 -58 -29 -104 -19 -154 31 -33 33 -38 44 -38 84 0 117 96 174
206 124z"/>
<path d="M6417 4159 c-100 -24 -190 -101 -240 -207 -29 -60 -32 -76 -31 -157
0 -75 4 -99 26 -147 34 -73 112 -152 186 -186 50 -24 69 -27 157 -27 93 0 105
2 167 33 77 38 134 97 175 181 25 49 28 67 28 151 -1 82 -4 102 -28 150 -35
73 -88 134 -144 167 -80 46 -202 64 -296 42z m146 -233 c53 -22 87 -70 87
-122 0 -63 -23 -102 -73 -125 -52 -23 -66 -23 -117 -3 -80 32 -108 140 -53
205 27 32 74 58 106 59 10 0 32 -6 50 -14z"/>
<path d="M5793 3546 c-101 -33 -194 -114 -236 -204 -17 -38 -21 -66 -22 -152
0 -98 2 -109 32 -171 141 -288 570 -264 683 38 31 82 26 204 -12 285 -58 124
-187 209 -327 215 -46 2 -93 -3 -118 -11z m200 -264 c38 -38 49 -120 23 -170
-45 -87 -179 -81 -237 10 -28 46 -21 109 17 150 39 40 60 48 117 44 38 -2 55
-10 80 -34z"/>
</g>
</svg>
