<?xml version="1.0" standalone="no"?>
<!DOCTYPE svg PUBLIC "-//W3C//DTD SVG 20010904//EN"
 "http://www.w3.org/TR/2001/REC-SVG-20010904/DTD/svg10.dtd">
<svg version="1.0" xmlns="http://www.w3.org/2000/svg"
 width="900.000000pt" height="640.000000pt" viewBox="0 0 900.000000 640.000000"
 preserveAspectRatio="xMidYMid meet">

<g transform="translate(0.000000,640.000000) scale(0.100000,-0.100000)"
fill="#f5f5f5" stroke="none">
<path d="M2415 6104 c-16 -2 -73 -9 -125 -15 -464 -52 -768 -253 -989 -652
-75 -136 -122 -232 -113 -235 8 -2 230 73 897 305 88 30 284 98 435 150 151
52 352 121 445 153 l170 59 460 -160 c253 -88 496 -173 540 -189 44 -16 94
-32 112 -36 31 -6 32 -5 67 71 20 43 36 79 36 81 0 1 -21 6 -47 9 -169 22
-350 77 -698 213 -475 185 -693 239 -1005 247 -85 2 -168 2 -185 -1z"/>
<path d="M6320 6069 c-35 -6 -66 -11 -67 -13 -2 -2 21 -68 51 -147 94 -251 68
-217 224 -292 75 -36 254 -123 397 -193 442 -215 446 -217 469 -206 12 5 73
40 136 77 63 37 131 76 150 87 19 11 39 24 44 28 19 18 -149 224 -272 334
-179 159 -366 256 -597 308 -104 23 -424 34 -535 17z"/>
<path d="M5725 5919 c-568 -199 -769 -257 -952 -275 -40 -3 -79 -12 -88 -18
-8 -6 -100 -186 -204 -401 l-189 -390 71 -70 c67 -65 157 -151 517 -500 80
-77 199 -192 263 -254 l118 -115 -82 -225 c-141 -390 -235 -650 -298 -825 -34
-93 -59 -171 -57 -173 3 -3 62 -29 133 -58 70 -29 187 -78 258 -108 72 -30
216 -91 320 -135 105 -44 309 -130 455 -192 146 -62 290 -122 320 -135 30 -12
260 -109 510 -215 250 -105 491 -207 535 -225 44 -18 106 -44 138 -59 l59 -26
151 59 c84 33 265 103 402 157 368 143 577 224 580 224 10 0 -38 383 -81 650
-66 405 -212 1077 -299 1370 -7 25 -23 81 -35 125 -112 402 -266 830 -371
1027 l-14 28 -65 -38 c-36 -21 -147 -87 -247 -146 l-182 -107 -93 47 c-51 26
-126 62 -166 80 l-73 33 25 -30 c64 -76 126 -257 126 -369 0 -63 -29 -189 -56
-241 l-24 -48 73 35 c170 81 334 83 480 7 291 -153 394 -563 211 -839 -63 -95
-153 -160 -279 -201 -66 -21 -99 -26 -190 -26 -139 0 -206 20 -331 99 -29 18
-29 18 -13 -1 54 -64 99 -198 106 -310 13 -223 -99 -425 -289 -518 -313 -155
-657 -36 -789 273 -58 137 -62 314 -10 430 11 24 19 45 18 46 -1 1 -36 -9 -77
-24 -64 -22 -92 -26 -190 -26 -102 0 -123 3 -190 28 -213 81 -353 269 -367
496 -7 104 6 171 52 265 56 117 148 206 281 273 183 93 389 81 547 -30 l27
-20 -35 71 c-84 166 -85 359 -3 529 87 184 272 299 483 303 l60 1 -130 63
c-71 35 -196 96 -277 135 l-146 72 -40 106 c-141 379 -155 412 -171 411 -9 0
-106 -32 -216 -70z"/>
<path d="M2895 5474 c-115 -40 -268 -94 -340 -118 -71 -24 -254 -87 -405 -139
-436 -151 -766 -265 -890 -308 -63 -22 -142 -49 -175 -60 -33 -12 -61 -22 -63
-24 -6 -6 -134 -354 -185 -505 -276 -817 -467 -1656 -529 -2325 -17 -185 -17
-620 0 -755 55 -436 195 -701 432 -819 l85 -42 7 43 c3 24 14 192 22 373 29
577 47 880 54 886 16 14 890 667 915 683 l27 18 152 -97 c84 -54 171 -110 193
-125 22 -15 123 -80 225 -145 102 -65 242 -156 313 -202 70 -46 131 -83 136
-83 5 0 33 16 62 36 113 76 274 139 465 183 200 46 498 85 755 98 l127 6 293
806 c161 443 305 840 320 882 l28 77 -372 358 c-583 563 -607 586 -607 598 0
6 45 105 101 219 56 114 100 209 98 211 -14 12 -992 346 -1011 345 -12 0 -117
-34 -233 -75z m-60 -304 c395 -45 747 -258 967 -584 107 -160 174 -317 214
-501 24 -113 24 -399 0 -510 -60 -275 -173 -483 -370 -681 -255 -255 -537
-379 -911 -400 -250 -15 -542 54 -744 175 -444 266 -702 827 -626 1362 84 594
471 1000 1065 1118 159 31 264 37 405 21z"/>
<path d="M2575 4375 c-158 -33 -307 -138 -373 -263 -114 -216 -68 -508 108
-682 109 -110 236 -156 395 -147 197 11 356 102 461 263 57 89 77 164 77 289
0 131 -21 202 -90 307 -127 192 -346 281 -578 233z"/>
<path d="M6326 4148 c69 -109 104 -274 84 -403 -6 -42 -20 -97 -31 -122 -10
-25 -19 -46 -19 -47 0 -2 37 11 83 27 74 28 93 31 202 31 132 0 181 -12 269
-66 26 -16 46 -25 44 -21 -2 4 -20 41 -40 82 -48 96 -62 164 -56 282 4 81 10
107 36 164 18 37 32 69 32 71 0 3 -10 -2 -23 -11 -44 -28 -176 -55 -273 -55
-108 0 -190 22 -276 74 l-57 34 25 -40z"/>
<path d="M4683 2303 c-17 -49 -44 -124 -60 -168 l-29 -81 110 -2 c122 -3 170
-6 386 -28 374 -39 716 -129 895 -238 222 -134 362 -253 810 -685 316 -305
465 -433 650 -556 185 -122 334 -184 503 -206 161 -22 316 29 438 143 154 144
257 370 301 658 14 96 31 510 20 510 -7 0 -328 -124 -824 -318 l-333 -130
-117 50 c-65 27 -154 65 -198 83 -44 18 -215 90 -380 160 -165 70 -397 167
-515 217 -118 50 -271 114 -340 143 -69 29 -255 108 -415 175 -159 67 -389
164 -510 215 -314 133 -343 145 -352 145 -5 0 -23 -39 -40 -87z"/>
<path d="M1523 1773 l-331 -248 -6 -60 c-5 -54 -15 -243 -47 -879 -5 -114 -9
-210 -7 -212 10 -10 137 34 233 80 198 97 411 263 715 560 126 123 250 239
420 391 24 22 64 58 89 81 l44 41 -144 92 c-79 51 -184 119 -234 151 -166 108
-376 241 -389 246 -7 3 -161 -107 -343 -243z"/>
</g>
</svg>
